# xmcd
#
# Track frame offsets: 
#        150
#        18541
#        41402
#        56531
#        72144
#        87032
#        104940
#        121519
#        139185
#        157214
#        183095
#        199070
#        225676
#        242738
#        257747
#
# Disc length: 3791 seconds
#
# Revision: 0
# Processed by: cddbd v1.5.2PL0 Copyright (c) Steve Scherf et al.
# Submitted via: ExactAudioCopy v0.99pb4
#
DISCID=cb0ecd0f
DTITLE=XS Project vs. Pump Estate - Виниловая бойня
DYEAR=2004
DGENRE=House
TTITLE0=Pumping Storm
TTITLE1=It's like that
TTITLE2=Расколбаzz (Rmx)
TTITLE3=Afterparty
TTITLE4=Колотушки
TTITLE5=Body don't stop
TTITLE6=Зрачок
TTITLE7=Promo
TTITLE8=150 BPM
TTITLE9=Fly
TTITLE10=Наши ноги пляшут сами
TTITLE11=Inside out (Rmx) - (Bass Bastatrds)
TTITLE12=Бочка, бас, колбасер (N-Ice Project Hard Bass Rmx)
TTITLE13=I go crazy
TTITLE14=Будет бит (Reactive Rmx)
EXTD=
EXTT0=
EXTT1=
EXTT2=
EXTT3=
EXTT4=
EXTT5=
EXTT6=
EXTT7=
EXTT8=
EXTT9=
EXTT10=
EXTT11=
EXTT12=
EXTT13=
EXTT14=
PLAYORDER=
